<?xml version="1.0" encoding="UTF-8"?>
<svg xmlns="http://www.w3.org/2000/svg" viewBox="7 -23 645 369" width="645" height="369">
<polygon points="56.5,57.2 44.8,77.5 21.3,77.5 9.5,57.2 21.2,36.8 44.7,36.8" fill="rgb(116,80,47)" fill-opacity="0.412" />
<polygon points="56.5,171.5 44.8,191.8 21.3,191.8 9.5,171.5 21.2,151.1 44.7,151.1" fill="rgb(67,41,23)" fill-opacity="0.540" />
<polygon points="89.5,76.2 77.8,96.6 54.3,96.6 42.5,76.2 54.2,55.9 77.7,55.9" fill="rgb(84,59,37)" fill-opacity="0.522" />
<polygon points="89.5,152.4 77.8,172.8 54.3,172.8 42.5,152.4 54.2,132.1 77.7,132.1" fill="rgb(106,73,45)" fill-opacity="0.421" />
<polygon points="89.5,190.5 77.8,210.9 54.3,210.9 42.5,190.5 54.2,170.2 77.7,170.2" fill="rgb(77,52,31)" fill-opacity="0.503" />
<polygon points="89.5,228.6 77.8,249.0 54.3,249.0 42.5,228.6 54.2,208.3 77.7,208.3" fill="rgb(73,46,25)" fill-opacity="0.520" />
<polygon points="122.5,57.2 110.8,77.5 87.3,77.5 75.5,57.2 87.2,36.8 110.7,36.8" fill="rgb(70,37,21)" fill-opacity="0.461" />
<polygon points="122.5,95.3 110.8,115.6 87.3,115.6 75.5,95.3 87.2,74.9 110.7,74.9" fill="rgb(97,66,41)" fill-opacity="0.574" />
<polygon points="122.5,133.4 110.8,153.7 87.3,153.7 75.5,133.4 87.2,113.0 110.7,113.0" fill="rgb(118,84,52)" fill-opacity="0.469" />
<polygon points="122.5,171.5 110.8,191.8 87.3,191.8 75.5,171.5 87.2,151.1 110.7,151.1" fill="rgb(117,80,49)" fill-opacity="0.572" />
<polygon points="122.5,209.6 110.8,229.9 87.3,229.9 75.5,209.6 87.2,189.2 110.7,189.2" fill="rgb(140,97,61)" fill-opacity="0.512" />
<polygon points="122.5,247.7 110.8,268.0 87.3,268.0 75.5,247.7 87.2,227.3 110.7,227.3" fill="rgb(135,95,62)" fill-opacity="0.569" />
<polygon points="122.5,285.8 110.8,306.1 87.3,306.1 75.5,285.8 87.2,265.4 110.7,265.4" fill="rgb(86,57,34)" fill-opacity="0.478" />
<polygon points="155.5,76.2 143.8,96.6 120.3,96.6 108.5,76.2 120.2,55.9 143.7,55.9" fill="rgb(58,34,21)" fill-opacity="0.686" />
<polygon points="155.5,114.3 143.8,134.7 120.3,134.7 108.5,114.3 120.2,94.0 143.7,94.0" fill="rgb(71,44,26)" fill-opacity="0.604" />
<polygon points="155.5,152.4 143.8,172.8 120.3,172.8 108.5,152.4 120.2,132.1 143.7,132.1" fill="rgb(84,52,30)" fill-opacity="0.722" />
<polygon points="155.5,190.5 143.8,210.9 120.3,210.9 108.5,190.5 120.2,170.2 143.7,170.2" fill="rgb(119,83,53)" fill-opacity="0.764" />
<polygon points="155.5,228.6 143.8,249.0 120.3,249.0 108.5,228.6 120.2,208.3 143.7,208.3" fill="rgb(134,97,63)" fill-opacity="0.700" />
<polygon points="188.5,57.2 176.8,77.5 153.3,77.5 141.5,57.2 153.3,36.8 176.7,36.8" fill="rgb(50,30,18)" fill-opacity="0.517" />
<polygon points="188.5,95.3 176.8,115.6 153.3,115.6 141.5,95.3 153.3,74.9 176.7,74.9" fill="rgb(64,39,24)" fill-opacity="0.751" />
<polygon points="188.5,133.4 176.8,153.7 153.3,153.7 141.5,133.4 153.3,113.0 176.7,113.0" fill="rgb(73,46,29)" fill-opacity="0.743" />
<polygon points="188.5,171.5 176.8,191.8 153.3,191.8 141.5,171.5 153.3,151.1 176.7,151.1" fill="rgb(71,45,29)" fill-opacity="0.837" />
<polygon points="188.5,209.6 176.8,229.9 153.3,229.9 141.5,209.6 153.3,189.2 176.7,189.2" fill="rgb(72,46,31)" fill-opacity="0.752" />
<polygon points="188.5,247.7 176.8,268.0 153.3,268.0 141.5,247.7 153.3,227.3 176.7,227.3" fill="rgb(92,64,41)" fill-opacity="0.555" />
<polygon points="188.5,285.8 176.8,306.1 153.3,306.1 141.5,285.8 153.3,265.4 176.7,265.4" fill="rgb(133,98,66)" fill-opacity="0.625" />
<polygon points="188.5,323.9 176.8,344.2 153.3,344.2 141.5,323.9 153.3,303.5 176.7,303.5" fill="rgb(136,101,68)" fill-opacity="0.450" />
<polygon points="221.5,0.0 209.8,20.4 186.3,20.4 174.5,0.0 186.3,-20.4 209.7,-20.4" fill="rgb(3,3,2)" fill-opacity="0.516" />
<polygon points="221.5,38.1 209.8,58.5 186.3,58.5 174.5,38.1 186.3,17.8 209.7,17.8" fill="rgb(14,10,7)" fill-opacity="0.465" />
<polygon points="221.5,76.2 209.8,96.6 186.3,96.6 174.5,76.2 186.3,55.9 209.7,55.9" fill="rgb(92,74,56)" fill-opacity="0.695" />
<polygon points="221.5,114.3 209.8,134.7 186.3,134.7 174.5,114.3 186.3,94.0 209.7,94.0" fill="rgb(114,92,70)" fill-opacity="0.885" />
<polygon points="221.5,152.4 209.8,172.8 186.3,172.8 174.5,152.4 186.3,132.1 209.7,132.1" fill="rgb(76,129,166)" fill-opacity="0.950" />
<polygon points="221.5,190.5 209.8,210.9 186.3,210.9 174.5,190.5 186.3,170.2 209.7,170.2" fill="rgb(122,105,84)" fill-opacity="0.813" />
<polygon points="221.5,228.6 209.8,249.0 186.3,249.0 174.5,228.6 186.3,208.3 209.7,208.3" fill="rgb(124,108,87)" fill-opacity="0.783" />
<polygon points="221.5,266.7 209.8,287.1 186.3,287.1 174.5,266.7 186.3,246.4 209.7,246.4" fill="rgb(126,112,92)" fill-opacity="0.495" />
<polygon points="254.5,19.1 242.8,39.4 219.3,39.4 207.5,19.1 219.3,-1.3 242.7,-1.3" fill="rgb(6,6,3)" fill-opacity="0.543" />
<polygon points="254.5,57.2 242.8,77.5 219.3,77.5 207.5,57.2 219.3,36.8 242.7,36.8" fill="rgb(85,66,46)" fill-opacity="0.600" />
<polygon points="254.5,95.3 242.8,115.6 219.3,115.6 207.5,95.3 219.3,74.9 242.7,74.9" fill="rgb(115,91,66)" fill-opacity="0.770" />
<polygon points="254.5,133.4 242.8,153.7 219.3,153.7 207.5,133.4 219.3,113.0 242.7,113.0" fill="rgb(75,62,46)" fill-opacity="0.791" />
<polygon points="254.5,171.5 242.8,191.8 219.3,191.8 207.5,171.5 219.3,151.1 242.7,151.1" fill="rgb(68,61,51)" fill-opacity="0.950" />
<polygon points="254.5,209.6 242.8,229.9 219.3,229.9 207.5,209.6 219.3,189.2 242.7,189.2" fill="rgb(132,114,92)" fill-opacity="0.950" />
<polygon points="254.5,247.7 242.8,268.0 219.3,268.0 207.5,247.7 219.3,227.3 242.7,227.3" fill="rgb(135,119,95)" fill-opacity="0.643" />
<polygon points="254.5,285.8 242.8,306.1 219.3,306.1 207.5,285.8 219.3,265.4 242.7,265.4" fill="rgb(152,139,115)" fill-opacity="0.613" />
<polygon points="254.5,323.9 242.8,344.2 219.3,344.2 207.5,323.9 219.3,303.5 242.7,303.5" fill="rgb(162,153,140)" fill-opacity="0.419" />
<polygon points="287.5,0.0 275.8,20.4 252.3,20.4 240.5,0.0 252.3,-20.4 275.8,-20.4" fill="rgb(46,34,24)" fill-opacity="0.472" />
<polygon points="287.5,38.1 275.8,58.5 252.3,58.5 240.5,38.1 252.3,17.8 275.8,17.8" fill="rgb(119,91,63)" fill-opacity="0.520" />
<polygon points="287.5,76.2 275.8,96.6 252.3,96.6 240.5,76.2 252.3,55.9 275.8,55.9" fill="rgb(122,96,69)" fill-opacity="0.684" />
<polygon points="287.5,114.3 275.8,134.7 252.3,134.7 240.5,114.3 252.3,94.0 275.8,94.0" fill="rgb(123,111,93)" fill-opacity="0.742" />
<polygon points="287.5,152.4 275.8,172.8 252.3,172.8 240.5,152.4 252.3,132.1 275.8,132.1" fill="rgb(81,79,74)" fill-opacity="0.872" />
<polygon points="287.5,190.5 275.8,210.9 252.3,210.9 240.5,190.5 252.3,170.2 275.8,170.2" fill="rgb(76,76,71)" fill-opacity="0.950" />
<polygon points="287.5,228.6 275.8,249.0 252.3,249.0 240.5,228.6 252.3,208.3 275.8,208.3" fill="rgb(139,120,94)" fill-opacity="0.741" />
<polygon points="287.5,266.7 275.8,287.1 252.3,287.1 240.5,266.7 252.3,246.4 275.8,246.4" fill="rgb(122,107,86)" fill-opacity="0.511" />
<polygon points="287.5,304.8 275.8,325.2 252.3,325.2 240.5,304.8 252.3,284.5 275.8,284.5" fill="rgb(77,68,66)" fill-opacity="0.518" />
<polygon points="320.5,57.2 308.8,77.5 285.3,77.5 273.5,57.2 285.3,36.8 308.8,36.8" fill="rgb(124,96,67)" fill-opacity="0.492" />
<polygon points="320.5,95.3 308.8,115.6 285.3,115.6 273.5,95.3 285.3,74.9 308.8,74.9" fill="rgb(188,183,169)" fill-opacity="0.629" />
<polygon points="320.5,133.4 308.8,153.7 285.3,153.7 273.5,133.4 285.3,113.0 308.8,113.0" fill="rgb(173,173,166)" fill-opacity="0.716" />
<polygon points="320.5,171.5 308.8,191.8 285.3,191.8 273.5,171.5 285.3,151.1 308.8,151.1" fill="rgb(206,211,213)" fill-opacity="0.759" />
<polygon points="320.5,209.6 308.8,229.9 285.3,229.9 273.5,209.6 285.3,189.2 308.8,189.2" fill="rgb(88,89,91)" fill-opacity="0.854" />
<polygon points="320.5,247.7 308.8,268.0 285.3,268.0 273.5,247.7 285.3,227.3 308.8,227.3" fill="rgb(74,62,48)" fill-opacity="0.653" />
<polygon points="320.5,285.8 308.8,306.1 285.3,306.1 273.5,285.8 285.3,265.4 308.8,265.4" fill="rgb(56,49,41)" fill-opacity="0.541" />
<polygon points="320.5,323.9 308.8,344.2 285.3,344.2 273.5,323.9 285.3,303.5 308.8,303.5" fill="rgb(186,231,240)" fill-opacity="0.445" />
<polygon points="353.5,38.1 341.8,58.5 318.3,58.5 306.5,38.1 318.3,17.8 341.8,17.8" fill="rgb(156,123,85)" fill-opacity="0.565" />
<polygon points="353.5,76.2 341.8,96.6 318.3,96.6 306.5,76.2 318.3,55.9 341.8,55.9" fill="rgb(202,195,184)" fill-opacity="0.545" />
<polygon points="353.5,114.3 341.8,134.7 318.3,134.7 306.5,114.3 318.3,94.0 341.8,94.0" fill="rgb(201,202,193)" fill-opacity="0.597" />
<polygon points="353.5,152.4 341.8,172.8 318.3,172.8 306.5,152.4 318.3,132.1 341.8,132.1" fill="rgb(26,23,34)" fill-opacity="0.749" />
<polygon points="353.5,190.5 341.8,210.9 318.3,210.9 306.5,190.5 318.3,170.2 341.8,170.2" fill="rgb(112,117,120)" fill-opacity="0.812" />
<polygon points="353.5,228.6 341.8,249.0 318.3,249.0 306.5,228.6 318.3,208.3 341.8,208.3" fill="rgb(99,107,117)" fill-opacity="0.690" />
<polygon points="353.5,266.7 341.8,287.1 318.3,287.1 306.5,266.7 318.3,246.4 341.8,246.4" fill="rgb(35,32,27)" fill-opacity="0.551" />
<polygon points="386.5,57.2 374.8,77.5 351.3,77.5 339.5,57.2 351.3,36.8 374.8,36.8" fill="rgb(199,189,171)" fill-opacity="0.428" />
<polygon points="386.5,95.3 374.8,115.6 351.3,115.6 339.5,95.3 351.3,74.9 374.8,74.9" fill="rgb(207,207,198)" fill-opacity="0.484" />
<polygon points="386.5,133.4 374.8,153.7 351.3,153.7 339.5,133.4 351.3,113.0 374.8,113.0" fill="rgb(207,216,224)" fill-opacity="0.526" />
<polygon points="386.5,171.5 374.8,191.8 351.3,191.8 339.5,171.5 351.3,151.1 374.8,151.1" fill="rgb(229,246,253)" fill-opacity="0.608" />
<polygon points="386.5,209.6 374.8,229.9 351.3,229.9 339.5,209.6 351.3,189.2 374.8,189.2" fill="rgb(99,105,108)" fill-opacity="0.552" />
<polygon points="386.5,247.7 374.8,268.0 351.3,268.0 339.5,247.7 351.3,227.3 374.8,227.3" fill="rgb(120,124,127)" fill-opacity="0.586" />
<polygon points="419.5,76.2 407.8,96.6 384.3,96.6 372.5,76.2 384.3,55.9 407.8,55.9" fill="rgb(227,224,217)" fill-opacity="0.569" />
<polygon points="419.5,114.3 407.8,134.7 384.3,134.7 372.5,114.3 384.3,94.0 407.8,94.0" fill="rgb(217,218,212)" fill-opacity="0.470" />
<polygon points="419.5,152.4 407.8,172.8 384.3,172.8 372.5,152.4 384.3,132.1 407.8,132.1" fill="rgb(220,221,216)" fill-opacity="0.494" />
<polygon points="419.5,190.5 407.8,210.9 384.3,210.9 372.5,190.5 384.3,170.2 407.8,170.2" fill="rgb(122,127,128)" fill-opacity="0.480" />
<polygon points="419.5,228.6 407.8,249.0 384.3,249.0 372.5,228.6 384.3,208.3 407.8,208.3" fill="rgb(133,141,140)" fill-opacity="0.589" />
<polygon points="419.5,266.7 407.8,287.1 384.3,287.1 372.5,266.7 384.3,246.4 407.8,246.4" fill="rgb(75,80,80)" fill-opacity="0.618" />
<polygon points="452.5,133.4 440.8,153.7 417.3,153.7 405.5,133.4 417.3,113.0 440.8,113.0" fill="rgb(225,226,221)" fill-opacity="0.533" />
<polygon points="452.5,171.5 440.8,191.8 417.3,191.8 405.5,171.5 417.3,151.1 440.8,151.1" fill="rgb(232,233,228)" fill-opacity="0.487" />
<polygon points="452.5,209.6 440.8,229.9 417.3,229.9 405.5,209.6 417.3,189.2 440.8,189.2" fill="rgb(177,182,179)" fill-opacity="0.640" />
<polygon points="452.5,247.7 440.8,268.0 417.3,268.0 405.5,247.7 417.3,227.3 440.8,227.3" fill="rgb(161,165,164)" fill-opacity="0.839" />
<polygon points="452.5,285.8 440.8,306.1 417.3,306.1 405.5,285.8 417.3,265.4 440.8,265.4" fill="rgb(175,178,172)" fill-opacity="0.529" />
<polygon points="485.5,76.2 473.8,96.6 450.3,96.6 438.5,76.2 450.3,55.9 473.8,55.9" fill="rgb(236,235,228)" fill-opacity="0.415" />
<polygon points="485.5,152.4 473.8,172.8 450.3,172.8 438.5,152.4 450.3,132.1 473.8,132.1" fill="rgb(109,113,115)" fill-opacity="0.522" />
<polygon points="485.5,190.5 473.8,210.9 450.3,210.9 438.5,190.5 450.3,170.2 473.8,170.2" fill="rgb(225,226,221)" fill-opacity="0.665" />
<polygon points="485.5,228.6 473.8,249.0 450.3,249.0 438.5,228.6 450.3,208.3 473.8,208.3" fill="rgb(194,196,192)" fill-opacity="0.600" />
<polygon points="485.5,266.7 473.8,287.1 450.3,287.1 438.5,266.7 450.3,246.4 473.8,246.4" fill="rgb(223,224,218)" fill-opacity="0.580" />
<polygon points="485.5,304.8 473.8,325.2 450.3,325.2 438.5,304.8 450.3,284.5 473.8,284.5" fill="rgb(232,231,221)" fill-opacity="0.482" />
<polygon points="518.5,209.6 506.8,229.9 483.3,229.9 471.5,209.6 483.3,189.2 506.8,189.2" fill="rgb(221,222,217)" fill-opacity="0.497" />
<polygon points="518.5,247.7 506.8,268.0 483.3,268.0 471.5,247.7 483.3,227.3 506.8,227.3" fill="rgb(221,222,214)" fill-opacity="0.651" />
<polygon points="518.5,285.8 506.8,306.1 483.3,306.1 471.5,285.8 483.3,265.4 506.8,265.4" fill="rgb(238,238,231)" fill-opacity="0.432" />
<polygon points="551.5,228.6 539.8,249.0 516.3,249.0 504.5,228.6 516.3,208.3 539.8,208.3" fill="rgb(248,246,241)" fill-opacity="0.508" />
<polygon points="551.5,266.7 539.8,287.1 516.3,287.1 504.5,266.7 516.3,246.4 539.8,246.4" fill="rgb(248,249,245)" fill-opacity="0.483" />
<polygon points="617.5,38.1 605.8,58.5 582.3,58.5 570.5,38.1 582.3,17.8 605.8,17.8" fill="rgb(54,27,15)" fill-opacity="0.409" />
<polygon points="650.5,285.8 638.8,306.1 615.3,306.1 603.5,285.8 615.3,265.4 638.8,265.4" fill="rgb(12,12,10)" fill-opacity="0.408" />
</svg>