<?xml version="1.0" encoding="UTF-8"?>
<svg xmlns="http://www.w3.org/2000/svg" viewBox="-26 -23 645 369" width="645" height="369">
<polygon points="23.5,38.1 11.8,58.5 -11.7,58.5 -23.5,38.1 -11.8,17.8 11.7,17.8" fill="rgb(4,11,9)" fill-opacity="0.439" />
<polygon points="23.5,76.2 11.8,96.6 -11.7,96.6 -23.5,76.2 -11.8,55.9 11.7,55.9" fill="rgb(36,186,193)" fill-opacity="0.438" />
<polygon points="23.5,114.3 11.8,134.7 -11.7,134.7 -23.5,114.3 -11.8,94.0 11.7,94.0" fill="rgb(94,192,196)" fill-opacity="0.508" />
<polygon points="23.5,152.4 11.8,172.8 -11.7,172.8 -23.5,152.4 -11.8,132.1 11.7,132.1" fill="rgb(108,195,183)" fill-opacity="0.464" />
<polygon points="23.5,190.5 11.8,210.9 -11.7,210.9 -23.5,190.5 -11.8,170.2 11.7,170.2" fill="rgb(37,78,81)" fill-opacity="0.466" />
<polygon points="23.5,228.6 11.8,249.0 -11.7,249.0 -23.5,228.6 -11.8,208.3 11.7,208.3" fill="rgb(33,130,120)" fill-opacity="0.500" />
<polygon points="56.5,57.2 44.8,77.5 21.3,77.5 9.5,57.2 21.2,36.8 44.7,36.8" fill="rgb(35,153,136)" fill-opacity="0.499" />
<polygon points="56.5,95.3 44.8,115.6 21.3,115.6 9.5,95.3 21.2,74.9 44.7,74.9" fill="rgb(125,225,215)" fill-opacity="0.605" />
<polygon points="56.5,133.4 44.8,153.7 21.3,153.7 9.5,133.4 21.2,113.0 44.7,113.0" fill="rgb(117,206,194)" fill-opacity="0.468" />
<polygon points="56.5,171.5 44.8,191.8 21.3,191.8 9.5,171.5 21.2,151.1 44.7,151.1" fill="rgb(108,161,174)" fill-opacity="0.653" />
<polygon points="56.5,209.6 44.8,229.9 21.3,229.9 9.5,209.6 21.2,189.2 44.7,189.2" fill="rgb(93,163,157)" fill-opacity="0.536" />
<polygon points="56.5,247.7 44.8,268.0 21.3,268.0 9.5,247.7 21.2,227.3 44.7,227.3" fill="rgb(1,5,7)" fill-opacity="0.404" />
<polygon points="56.5,285.8 44.8,306.1 21.3,306.1 9.5,285.8 21.2,265.4 44.7,265.4" fill="rgb(0,3,5)" fill-opacity="0.518" />
<polygon points="89.5,38.1 77.8,58.5 54.3,58.5 42.5,38.1 54.2,17.8 77.7,17.8" fill="rgb(8,15,12)" fill-opacity="0.484" />
<polygon points="89.5,76.2 77.8,96.6 54.3,96.6 42.5,76.2 54.2,55.9 77.7,55.9" fill="rgb(0,159,163)" fill-opacity="0.562" />
<polygon points="89.5,114.3 77.8,134.7 54.3,134.7 42.5,114.3 54.2,94.0 77.7,94.0" fill="rgb(57,156,155)" fill-opacity="0.525" />
<polygon points="89.5,152.4 77.8,172.8 54.3,172.8 42.5,152.4 54.2,132.1 77.7,132.1" fill="rgb(4,6,7)" fill-opacity="0.585" />
<polygon points="89.5,190.5 77.8,210.9 54.3,210.9 42.5,190.5 54.2,170.2 77.7,170.2" fill="rgb(80,126,126)" fill-opacity="0.690" />
<polygon points="89.5,228.6 77.8,249.0 54.3,249.0 42.5,228.6 54.2,208.3 77.7,208.3" fill="rgb(102,182,169)" fill-opacity="0.566" />
<polygon points="122.5,57.2 110.8,77.5 87.3,77.5 75.5,57.2 87.2,36.8 110.7,36.8" fill="rgb(45,161,150)" fill-opacity="0.541" />
<polygon points="122.5,95.3 110.8,115.6 87.3,115.6 75.5,95.3 87.2,74.9 110.7,74.9" fill="rgb(131,227,220)" fill-opacity="0.605" />
<polygon points="122.5,133.4 110.8,153.7 87.3,153.7 75.5,133.4 87.2,113.0 110.7,113.0" fill="rgb(0,43,43)" fill-opacity="0.703" />
<polygon points="122.5,171.5 110.8,191.8 87.3,191.8 75.5,171.5 87.2,151.1 110.7,151.1" fill="rgb(2,5,8)" fill-opacity="0.777" />
<polygon points="122.5,209.6 110.8,229.9 87.3,229.9 75.5,209.6 87.2,189.2 110.7,189.2" fill="rgb(109,171,163)" fill-opacity="0.577" />
<polygon points="122.5,247.7 110.8,268.0 87.3,268.0 75.5,247.7 87.2,227.3 110.7,227.3" fill="rgb(18,54,44)" fill-opacity="0.558" />
<polygon points="122.5,285.8 110.8,306.1 87.3,306.1 75.5,285.8 87.2,265.4 110.7,265.4" fill="rgb(86,203,200)" fill-opacity="0.489" />
<polygon points="122.5,323.9 110.8,344.2 87.3,344.2 75.5,323.9 87.2,303.5 110.7,303.5" fill="rgb(2,158,166)" fill-opacity="0.411" />
<polygon points="155.5,38.1 143.8,58.5 120.3,58.5 108.5,38.1 120.2,17.8 143.7,17.8" fill="rgb(7,14,10)" fill-opacity="0.559" />
<polygon points="155.5,76.2 143.8,96.6 120.3,96.6 108.5,76.2 120.2,55.9 143.7,55.9" fill="rgb(0,143,147)" fill-opacity="0.585" />
<polygon points="155.5,114.3 143.8,134.7 120.3,134.7 108.5,114.3 120.2,94.0 143.7,94.0" fill="rgb(60,170,167)" fill-opacity="0.688" />
<polygon points="155.5,152.4 143.8,172.8 120.3,172.8 108.5,152.4 120.2,132.1 143.7,132.1" fill="rgb(109,185,177)" fill-opacity="0.686" />
<polygon points="155.5,190.5 143.8,210.9 120.3,210.9 108.5,190.5 120.2,170.2 143.7,170.2" fill="rgb(9,66,68)" fill-opacity="0.738" />
<polygon points="155.5,228.6 143.8,249.0 120.3,249.0 108.5,228.6 120.2,208.3 143.7,208.3" fill="rgb(87,164,150)" fill-opacity="0.718" />
<polygon points="155.5,266.7 143.8,287.1 120.3,287.1 108.5,266.7 120.2,246.4 143.7,246.4" fill="rgb(128,225,221)" fill-opacity="0.525" />
<polygon points="188.5,19.1 176.8,39.4 153.3,39.4 141.5,19.1 153.3,-1.3 176.7,-1.3" fill="rgb(7,11,6)" fill-opacity="0.495" />
<polygon points="188.5,57.2 176.8,77.5 153.3,77.5 141.5,57.2 153.3,36.8 176.7,36.8" fill="rgb(10,125,124)" fill-opacity="0.521" />
<polygon points="188.5,95.3 176.8,115.6 153.3,115.6 141.5,95.3 153.3,74.9 176.7,74.9" fill="rgb(149,235,228)" fill-opacity="0.665" />
<polygon points="188.5,133.4 176.8,153.7 153.3,153.7 141.5,133.4 153.3,113.0 176.7,113.0" fill="rgb(4,20,16)" fill-opacity="0.780" />
<polygon points="188.5,171.5 176.8,191.8 153.3,191.8 141.5,171.5 153.3,151.1 176.7,151.1" fill="rgb(4,50,53)" fill-opacity="0.863" />
<polygon points="188.5,209.6 176.8,229.9 153.3,229.9 141.5,209.6 153.3,189.2 176.7,189.2" fill="rgb(96,139,122)" fill-opacity="0.679" />
<polygon points="188.5,247.7 176.8,268.0 153.3,268.0 141.5,247.7 153.3,227.3 176.7,227.3" fill="rgb(42,109,103)" fill-opacity="0.642" />
<polygon points="188.5,285.8 176.8,306.1 153.3,306.1 141.5,285.8 153.3,265.4 176.7,265.4" fill="rgb(107,216,210)" fill-opacity="0.555" />
<polygon points="221.5,0.0 209.8,20.4 186.3,20.4 174.5,0.0 186.3,-20.4 209.7,-20.4" fill="rgb(11,18,15)" fill-opacity="0.417" />
<polygon points="221.5,38.1 209.8,58.5 186.3,58.5 174.5,38.1 186.3,17.8 209.7,17.8" fill="rgb(8,16,11)" fill-opacity="0.559" />
<polygon points="221.5,76.2 209.8,96.6 186.3,96.6 174.5,76.2 186.3,55.9 209.7,55.9" fill="rgb(0,133,138)" fill-opacity="0.810" />
<polygon points="221.5,114.3 209.8,134.7 186.3,134.7 174.5,114.3 186.3,94.0 209.7,94.0" fill="rgb(1,152,149)" fill-opacity="0.844" />
<polygon points="221.5,152.4 209.8,172.8 186.3,172.8 174.5,152.4 186.3,132.1 209.7,132.1" fill="rgb(121,212,210)" fill-opacity="0.950" />
<polygon points="221.5,190.5 209.8,210.9 186.3,210.9 174.5,190.5 186.3,170.2 209.7,170.2" fill="rgb(44,71,95)" fill-opacity="0.787" />
<polygon points="221.5,228.6 209.8,249.0 186.3,249.0 174.5,228.6 186.3,208.3 209.7,208.3" fill="rgb(80,127,110)" fill-opacity="0.674" />
<polygon points="221.5,266.7 209.8,287.1 186.3,287.1 174.5,266.7 186.3,246.4 209.7,246.4" fill="rgb(6,11,8)" fill-opacity="0.526" />
<polygon points="221.5,304.8 209.8,325.2 186.3,325.2 174.5,304.8 186.3,284.5 209.7,284.5" fill="rgb(35,152,148)" fill-opacity="0.438" />
<polygon points="254.5,19.1 242.8,39.4 219.3,39.4 207.5,19.1 219.3,-1.3 242.7,-1.3" fill="rgb(4,11,8)" fill-opacity="0.591" />
<polygon points="254.5,57.2 242.8,77.5 219.3,77.5 207.5,57.2 219.3,36.8 242.7,36.8" fill="rgb(5,80,75)" fill-opacity="0.595" />
<polygon points="254.5,95.3 242.8,115.6 219.3,115.6 207.5,95.3 219.3,74.9 242.7,74.9" fill="rgb(161,239,230)" fill-opacity="0.869" />
<polygon points="254.5,133.4 242.8,153.7 219.3,153.7 207.5,133.4 219.3,113.0 242.7,113.0" fill="rgb(3,3,2)" fill-opacity="0.950" />
<polygon points="254.5,171.5 242.8,191.8 219.3,191.8 207.5,171.5 219.3,151.1 242.7,151.1" fill="rgb(94,179,189)" fill-opacity="0.950" />
<polygon points="254.5,209.6 242.8,229.9 219.3,229.9 207.5,209.6 219.3,189.2 242.7,189.2" fill="rgb(18,33,38)" fill-opacity="0.899" />
<polygon points="254.5,247.7 242.8,268.0 219.3,268.0 207.5,247.7 219.3,227.3 242.7,227.3" fill="rgb(41,83,70)" fill-opacity="0.701" />
<polygon points="254.5,285.8 242.8,306.1 219.3,306.1 207.5,285.8 219.3,265.4 242.7,265.4" fill="rgb(42,167,157)" fill-opacity="0.626" />
<polygon points="254.5,323.9 242.8,344.2 219.3,344.2 207.5,323.9 219.3,303.5 242.7,303.5" fill="rgb(3,133,139)" fill-opacity="0.436" />
<polygon points="287.5,0.0 275.8,20.4 252.3,20.4 240.5,0.0 252.3,-20.4 275.8,-20.4" fill="rgb(14,20,14)" fill-opacity="0.571" />
<polygon points="287.5,38.1 275.8,58.5 252.3,58.5 240.5,38.1 252.3,17.8 275.8,17.8" fill="rgb(8,22,19)" fill-opacity="0.745" />
<polygon points="287.5,76.2 275.8,96.6 252.3,96.6 240.5,76.2 252.3,55.9 275.8,55.9" fill="rgb(0,115,123)" fill-opacity="0.757" />
<polygon points="287.5,114.3 275.8,134.7 252.3,134.7 240.5,114.3 252.3,94.0 275.8,94.0" fill="rgb(87,199,193)" fill-opacity="0.822" />
<polygon points="287.5,152.4 275.8,172.8 252.3,172.8 240.5,152.4 252.3,132.1 275.8,132.1" fill="rgb(109,208,206)" fill-opacity="0.950" />
<polygon points="287.5,190.5 275.8,210.9 252.3,210.9 240.5,190.5 252.3,170.2 275.8,170.2" fill="rgb(60,94,126)" fill-opacity="0.747" />
<polygon points="287.5,228.6 275.8,249.0 252.3,249.0 240.5,228.6 252.3,208.3 275.8,208.3" fill="rgb(128,189,164)" fill-opacity="0.699" />
<polygon points="287.5,266.7 275.8,287.1 252.3,287.1 240.5,266.7 252.3,246.4 275.8,246.4" fill="rgb(127,223,214)" fill-opacity="0.572" />
<polygon points="287.5,304.8 275.8,325.2 252.3,325.2 240.5,304.8 252.3,284.5 275.8,284.5" fill="rgb(122,206,206)" fill-opacity="0.462" />
<polygon points="320.5,57.2 308.8,77.5 285.3,77.5 273.5,57.2 285.3,36.8 308.8,36.8" fill="rgb(5,51,48)" fill-opacity="0.519" />
<polygon points="320.5,95.3 308.8,115.6 285.3,115.6 273.5,95.3 285.3,74.9 308.8,74.9" fill="rgb(160,239,229)" fill-opacity="0.649" />
<polygon points="320.5,133.4 308.8,153.7 285.3,153.7 273.5,133.4 285.3,113.0 308.8,113.0" fill="rgb(6,51,45)" fill-opacity="0.791" />
<polygon points="320.5,171.5 308.8,191.8 285.3,191.8 273.5,171.5 285.3,151.1 308.8,151.1" fill="rgb(113,189,197)" fill-opacity="0.779" />
<polygon points="320.5,209.6 308.8,229.9 285.3,229.9 273.5,209.6 285.3,189.2 308.8,189.2" fill="rgb(15,34,36)" fill-opacity="0.825" />
<polygon points="320.5,247.7 308.8,268.0 285.3,268.0 273.5,247.7 285.3,227.3 308.8,227.3" fill="rgb(46,99,95)" fill-opacity="0.682" />
<polygon points="320.5,285.8 308.8,306.1 285.3,306.1 273.5,285.8 285.3,265.4 308.8,265.4" fill="rgb(128,224,222)" fill-opacity="0.505" />
<polygon points="353.5,0.0 341.8,20.4 318.3,20.4 306.5,0.0 318.3,-20.4 341.8,-20.4" fill="rgb(7,22,19)" fill-opacity="0.569" />
<polygon points="353.5,38.1 341.8,58.5 318.3,58.5 306.5,38.1 318.3,17.8 341.8,17.8" fill="rgb(7,20,15)" fill-opacity="0.572" />
<polygon points="353.5,76.2 341.8,96.6 318.3,96.6 306.5,76.2 318.3,55.9 341.8,55.9" fill="rgb(0,107,112)" fill-opacity="0.761" />
<polygon points="353.5,114.3 341.8,134.7 318.3,134.7 306.5,114.3 318.3,94.0 341.8,94.0" fill="rgb(48,153,150)" fill-opacity="0.801" />
<polygon points="353.5,152.4 341.8,172.8 318.3,172.8 306.5,152.4 318.3,132.1 341.8,132.1" fill="rgb(109,217,199)" fill-opacity="0.863" />
<polygon points="353.5,190.5 341.8,210.9 318.3,210.9 306.5,190.5 318.3,170.2 341.8,170.2" fill="rgb(77,132,147)" fill-opacity="0.806" />
<polygon points="353.5,228.6 341.8,249.0 318.3,249.0 306.5,228.6 318.3,208.3 341.8,208.3" fill="rgb(30,47,45)" fill-opacity="0.768" />
<polygon points="353.5,266.7 341.8,287.1 318.3,287.1 306.5,266.7 318.3,246.4 341.8,246.4" fill="rgb(53,125,109)" fill-opacity="0.480" />
<polygon points="353.5,304.8 341.8,325.2 318.3,325.2 306.5,304.8 318.3,284.5 341.8,284.5" fill="rgb(54,176,178)" fill-opacity="0.492" />
<polygon points="386.5,57.2 374.8,77.5 351.3,77.5 339.5,57.2 351.3,36.8 374.8,36.8" fill="rgb(2,34,38)" fill-opacity="0.530" />
<polygon points="386.5,95.3 374.8,115.6 351.3,115.6 339.5,95.3 351.3,74.9 374.8,74.9" fill="rgb(176,242,235)" fill-opacity="0.731" />
<polygon points="386.5,133.4 374.8,153.7 351.3,153.7 339.5,133.4 351.3,113.0 374.8,113.0" fill="rgb(4,46,51)" fill-opacity="0.758" />
<polygon points="386.5,171.5 374.8,191.8 351.3,191.8 339.5,171.5 351.3,151.1 374.8,151.1" fill="rgb(66,149,159)" fill-opacity="0.641" />
<polygon points="386.5,209.6 374.8,229.9 351.3,229.9 339.5,209.6 351.3,189.2 374.8,189.2" fill="rgb(54,90,111)" fill-opacity="0.745" />
<polygon points="386.5,247.7 374.8,268.0 351.3,268.0 339.5,247.7 351.3,227.3 374.8,227.3" fill="rgb(118,160,137)" fill-opacity="0.591" />
<polygon points="386.5,285.8 374.8,306.1 351.3,306.1 339.5,285.8 351.3,265.4 374.8,265.4" fill="rgb(4,42,50)" fill-opacity="0.528" />
<polygon points="386.5,323.9 374.8,344.2 351.3,344.2 339.5,323.9 351.3,303.5 374.8,303.5" fill="rgb(188,243,245)" fill-opacity="0.506" />
<polygon points="419.5,0.0 407.8,20.4 384.3,20.4 372.5,0.0 384.3,-20.4 407.8,-20.4" fill="rgb(3,10,7)" fill-opacity="0.435" />
<polygon points="419.5,38.1 407.8,58.5 384.3,58.5 372.5,38.1 384.3,17.8 407.8,17.8" fill="rgb(8,15,12)" fill-opacity="0.483" />
<polygon points="419.5,76.2 407.8,96.6 384.3,96.6 372.5,76.2 384.3,55.9 407.8,55.9" fill="rgb(0,141,142)" fill-opacity="0.702" />
<polygon points="419.5,114.3 407.8,134.7 384.3,134.7 372.5,114.3 384.3,94.0 407.8,94.0" fill="rgb(1,140,146)" fill-opacity="0.619" />
<polygon points="419.5,152.4 407.8,172.8 384.3,172.8 372.5,152.4 384.3,132.1 407.8,132.1" fill="rgb(117,223,223)" fill-opacity="0.671" />
<polygon points="419.5,190.5 407.8,210.9 384.3,210.9 372.5,190.5 384.3,170.2 407.8,170.2" fill="rgb(1,5,8)" fill-opacity="0.720" />
<polygon points="419.5,228.6 407.8,249.0 384.3,249.0 372.5,228.6 384.3,208.3 407.8,208.3" fill="rgb(52,66,78)" fill-opacity="0.646" />
<polygon points="419.5,266.7 407.8,287.1 384.3,287.1 372.5,266.7 384.3,246.4 407.8,246.4" fill="rgb(122,217,215)" fill-opacity="0.573" />
<polygon points="452.5,57.2 440.8,77.5 417.3,77.5 405.5,57.2 417.3,36.8 440.8,36.8" fill="rgb(2,23,26)" fill-opacity="0.500" />
<polygon points="452.5,95.3 440.8,115.6 417.3,115.6 405.5,95.3 417.3,74.9 440.8,74.9" fill="rgb(175,243,233)" fill-opacity="0.580" />
<polygon points="452.5,133.4 440.8,153.7 417.3,153.7 405.5,133.4 417.3,113.0 440.8,113.0" fill="rgb(0,162,162)" fill-opacity="0.562" />
<polygon points="452.5,171.5 440.8,191.8 417.3,191.8 405.5,171.5 417.3,151.1 440.8,151.1" fill="rgb(53,174,178)" fill-opacity="0.621" />
<polygon points="452.5,209.6 440.8,229.9 417.3,229.9 405.5,209.6 417.3,189.2 440.8,189.2" fill="rgb(5,36,38)" fill-opacity="0.643" />
<polygon points="452.5,247.7 440.8,268.0 417.3,268.0 405.5,247.7 417.3,227.3 440.8,227.3" fill="rgb(59,77,67)" fill-opacity="0.434" />
<polygon points="485.5,38.1 473.8,58.5 450.3,58.5 438.5,38.1 450.3,17.8 473.8,17.8" fill="rgb(4,9,7)" fill-opacity="0.509" />
<polygon points="485.5,76.2 473.8,96.6 450.3,96.6 438.5,76.2 450.3,55.9 473.8,55.9" fill="rgb(0,100,114)" fill-opacity="0.531" />
<polygon points="485.5,114.3 473.8,134.7 450.3,134.7 438.5,114.3 450.3,94.0 473.8,94.0" fill="rgb(2,104,103)" fill-opacity="0.763" />
<polygon points="485.5,152.4 473.8,172.8 450.3,172.8 438.5,152.4 450.3,132.1 473.8,132.1" fill="rgb(77,204,204)" fill-opacity="0.669" />
<polygon points="485.5,190.5 473.8,210.9 450.3,210.9 438.5,190.5 450.3,170.2 473.8,170.2" fill="rgb(150,224,226)" fill-opacity="0.573" />
<polygon points="485.5,228.6 473.8,249.0 450.3,249.0 438.5,228.6 450.3,208.3 473.8,208.3" fill="rgb(8,63,68)" fill-opacity="0.567" />
<polygon points="485.5,266.7 473.8,287.1 450.3,287.1 438.5,266.7 450.3,246.4 473.8,246.4" fill="rgb(149,216,197)" fill-opacity="0.441" />
<polygon points="518.5,57.2 506.8,77.5 483.3,77.5 471.5,57.2 483.3,36.8 506.8,36.8" fill="rgb(6,23,22)" fill-opacity="0.527" />
<polygon points="518.5,95.3 506.8,115.6 483.3,115.6 471.5,95.3 483.3,74.9 506.8,74.9" fill="rgb(121,226,217)" fill-opacity="0.537" />
<polygon points="518.5,133.4 506.8,153.7 483.3,153.7 471.5,133.4 483.3,113.0 506.8,113.0" fill="rgb(3,120,118)" fill-opacity="0.598" />
<polygon points="518.5,171.5 506.8,191.8 483.3,191.8 471.5,171.5 483.3,151.1 506.8,151.1" fill="rgb(29,150,154)" fill-opacity="0.736" />
<polygon points="518.5,209.6 506.8,229.9 483.3,229.9 471.5,209.6 483.3,189.2 506.8,189.2" fill="rgb(127,221,221)" fill-opacity="0.555" />
<polygon points="518.5,247.7 506.8,268.0 483.3,268.0 471.5,247.7 483.3,227.3 506.8,227.3" fill="rgb(133,179,169)" fill-opacity="0.494" />
<polygon points="551.5,38.1 539.8,58.5 516.3,58.5 504.5,38.1 516.3,17.8 539.8,17.8" fill="rgb(7,14,9)" fill-opacity="0.406" />
<polygon points="551.5,76.2 539.8,96.6 516.3,96.6 504.5,76.2 516.3,55.9 539.8,55.9" fill="rgb(0,81,98)" fill-opacity="0.513" />
<polygon points="551.5,114.3 539.8,134.7 516.3,134.7 504.5,114.3 516.3,94.0 539.8,94.0" fill="rgb(109,221,217)" fill-opacity="0.519" />
<polygon points="551.5,152.4 539.8,172.8 516.3,172.8 504.5,152.4 516.3,132.1 539.8,132.1" fill="rgb(4,154,153)" fill-opacity="0.735" />
<polygon points="551.5,190.5 539.8,210.9 516.3,210.9 504.5,190.5 516.3,170.2 539.8,170.2" fill="rgb(35,163,166)" fill-opacity="0.494" />
<polygon points="551.5,228.6 539.8,249.0 516.3,249.0 504.5,228.6 516.3,208.3 539.8,208.3" fill="rgb(110,172,179)" fill-opacity="0.404" />
<polygon points="584.5,57.2 572.8,77.5 549.3,77.5 537.5,57.2 549.3,36.8 572.8,36.8" fill="rgb(4,23,27)" fill-opacity="0.436" />
<polygon points="584.5,95.3 572.8,115.6 549.3,115.6 537.5,95.3 549.3,74.9 572.8,74.9" fill="rgb(92,213,205)" fill-opacity="0.515" />
<polygon points="584.5,133.4 572.8,153.7 549.3,153.7 537.5,133.4 549.3,113.0 572.8,113.0" fill="rgb(143,231,221)" fill-opacity="0.435" />
<polygon points="584.5,171.5 572.8,191.8 549.3,191.8 537.5,171.5 549.3,151.1 572.8,151.1" fill="rgb(142,229,227)" fill-opacity="0.427" />
<polygon points="584.5,209.6 572.8,229.9 549.3,229.9 537.5,209.6 549.3,189.2 572.8,189.2" fill="rgb(75,175,180)" fill-opacity="0.456" />
<polygon points="617.5,76.2 605.8,96.6 582.3,96.6 570.5,76.2 582.3,55.9 605.8,55.9" fill="rgb(5,98,111)" fill-opacity="0.455" />
</svg>