<?xml version="1.0" encoding="UTF-8"?>
<svg xmlns="http://www.w3.org/2000/svg" viewBox="7 -23 546 388" width="546" height="388">
<polygon points="56.5,95.3 44.8,115.6 21.3,115.6 9.5,95.3 21.2,74.9 44.7,74.9" fill="rgb(0,0,0)" fill-opacity="0.445" />
<polygon points="56.5,171.5 44.8,191.8 21.3,191.8 9.5,171.5 21.2,151.1 44.7,151.1" fill="rgb(0,0,0)" fill-opacity="0.503" />
<polygon points="56.5,285.8 44.8,306.1 21.3,306.1 9.5,285.8 21.2,265.4 44.7,265.4" fill="rgb(0,0,0)" fill-opacity="0.414" />
<polygon points="89.5,76.2 77.8,96.6 54.3,96.6 42.5,76.2 54.2,55.9 77.7,55.9" fill="rgb(0,0,0)" fill-opacity="0.418" />
<polygon points="89.5,152.4 77.8,172.8 54.3,172.8 42.5,152.4 54.2,132.1 77.7,132.1" fill="rgb(0,0,0)" fill-opacity="0.451" />
<polygon points="89.5,190.5 77.8,210.9 54.3,210.9 42.5,190.5 54.2,170.2 77.7,170.2" fill="rgb(0,0,0)" fill-opacity="0.580" />
<polygon points="89.5,228.6 77.8,249.0 54.3,249.0 42.5,228.6 54.2,208.3 77.7,208.3" fill="rgb(0,0,0)" fill-opacity="0.466" />
<polygon points="122.5,57.2 110.8,77.5 87.3,77.5 75.5,57.2 87.2,36.8 110.7,36.8" fill="rgb(0,0,0)" fill-opacity="0.419" />
<polygon points="122.5,95.3 110.8,115.6 87.3,115.6 75.5,95.3 87.2,74.9 110.7,74.9" fill="rgb(0,0,0)" fill-opacity="0.484" />
<polygon points="122.5,133.4 110.8,153.7 87.3,153.7 75.5,133.4 87.2,113.0 110.7,113.0" fill="rgb(0,0,0)" fill-opacity="0.588" />
<polygon points="122.5,171.5 110.8,191.8 87.3,191.8 75.5,171.5 87.2,151.1 110.7,151.1" fill="rgb(0,0,0)" fill-opacity="0.676" />
<polygon points="122.5,209.6 110.8,229.9 87.3,229.9 75.5,209.6 87.2,189.2 110.7,189.2" fill="rgb(0,0,0)" fill-opacity="0.484" />
<polygon points="122.5,247.7 110.8,268.0 87.3,268.0 75.5,247.7 87.2,227.3 110.7,227.3" fill="rgb(0,0,0)" fill-opacity="0.482" />
<polygon points="122.5,285.8 110.8,306.1 87.3,306.1 75.5,285.8 87.2,265.4 110.7,265.4" fill="rgb(0,0,0)" fill-opacity="0.422" />
<polygon points="155.5,38.1 143.8,58.5 120.3,58.5 108.5,38.1 120.2,17.8 143.7,17.8" fill="rgb(0,0,0)" fill-opacity="0.455" />
<polygon points="155.5,76.2 143.8,96.6 120.3,96.6 108.5,76.2 120.2,55.9 143.7,55.9" fill="rgb(0,0,0)" fill-opacity="0.480" />
<polygon points="155.5,114.3 143.8,134.7 120.3,134.7 108.5,114.3 120.2,94.0 143.7,94.0" fill="rgb(9,9,9)" fill-opacity="0.590" />
<polygon points="155.5,152.4 143.8,172.8 120.3,172.8 108.5,152.4 120.2,132.1 143.7,132.1" fill="rgb(0,0,0)" fill-opacity="0.601" />
<polygon points="155.5,190.5 143.8,210.9 120.3,210.9 108.5,190.5 120.2,170.2 143.7,170.2" fill="rgb(0,0,0)" fill-opacity="0.680" />
<polygon points="155.5,228.6 143.8,249.0 120.3,249.0 108.5,228.6 120.2,208.3 143.7,208.3" fill="rgb(0,0,0)" fill-opacity="0.678" />
<polygon points="155.5,266.7 143.8,287.1 120.3,287.1 108.5,266.7 120.2,246.4 143.7,246.4" fill="rgb(0,0,0)" fill-opacity="0.483" />
<polygon points="188.5,57.2 176.8,77.5 153.3,77.5 141.5,57.2 153.3,36.8 176.7,36.8" fill="rgb(0,0,0)" fill-opacity="0.428" />
<polygon points="188.5,95.3 176.8,115.6 153.3,115.6 141.5,95.3 153.3,74.9 176.7,74.9" fill="rgb(0,0,0)" fill-opacity="0.581" />
<polygon points="188.5,133.4 176.8,153.7 153.3,153.7 141.5,133.4 153.3,113.0 176.7,113.0" fill="rgb(203,189,161)" fill-opacity="0.705" />
<polygon points="188.5,171.5 176.8,191.8 153.3,191.8 141.5,171.5 153.3,151.1 176.7,151.1" fill="rgb(207,194,169)" fill-opacity="0.811" />
<polygon points="188.5,209.6 176.8,229.9 153.3,229.9 141.5,209.6 153.3,189.2 176.7,189.2" fill="rgb(181,168,143)" fill-opacity="0.645" />
<polygon points="188.5,247.7 176.8,268.0 153.3,268.0 141.5,247.7 153.3,227.3 176.7,227.3" fill="rgb(201,197,189)" fill-opacity="0.620" />
<polygon points="188.5,285.8 176.8,306.1 153.3,306.1 141.5,285.8 153.3,265.4 176.7,265.4" fill="rgb(177,173,165)" fill-opacity="0.533" />
<polygon points="221.5,38.1 209.8,58.5 186.3,58.5 174.5,38.1 186.3,17.8 209.7,17.8" fill="rgb(0,0,0)" fill-opacity="0.479" />
<polygon points="221.5,76.2 209.8,96.6 186.3,96.6 174.5,76.2 186.3,55.9 209.7,55.9" fill="rgb(0,0,0)" fill-opacity="0.748" />
<polygon points="221.5,114.3 209.8,134.7 186.3,134.7 174.5,114.3 186.3,94.0 209.7,94.0" fill="rgb(205,192,165)" fill-opacity="0.786" />
<polygon points="221.5,152.4 209.8,172.8 186.3,172.8 174.5,152.4 186.3,132.1 209.7,132.1" fill="rgb(205,192,164)" fill-opacity="0.950" />
<polygon points="221.5,190.5 209.8,210.9 186.3,210.9 174.5,190.5 186.3,170.2 209.7,170.2" fill="rgb(211,199,176)" fill-opacity="0.788" />
<polygon points="221.5,228.6 209.8,249.0 186.3,249.0 174.5,228.6 186.3,208.3 209.7,208.3" fill="rgb(178,156,117)" fill-opacity="0.674" />
<polygon points="221.5,266.7 209.8,287.1 186.3,287.1 174.5,266.7 186.3,246.4 209.7,246.4" fill="rgb(169,144,102)" fill-opacity="0.517" />
<polygon points="221.5,304.8 209.8,325.2 186.3,325.2 174.5,304.8 186.3,284.5 209.7,284.5" fill="rgb(160,135,91)" fill-opacity="0.421" />
<polygon points="254.5,19.1 242.8,39.4 219.3,39.4 207.5,19.1 219.3,-1.3 242.7,-1.3" fill="rgb(0,0,0)" fill-opacity="0.513" />
<polygon points="254.5,57.2 242.8,77.5 219.3,77.5 207.5,57.2 219.3,36.8 242.7,36.8" fill="rgb(0,0,0)" fill-opacity="0.521" />
<polygon points="254.5,95.3 242.8,115.6 219.3,115.6 207.5,95.3 219.3,74.9 242.7,74.9" fill="rgb(216,206,187)" fill-opacity="0.816" />
<polygon points="254.5,133.4 242.8,153.7 219.3,153.7 207.5,133.4 219.3,113.0 242.7,113.0" fill="rgb(205,191,164)" fill-opacity="0.943" />
<polygon points="254.5,171.5 242.8,191.8 219.3,191.8 207.5,171.5 219.3,151.1 242.7,151.1" fill="rgb(208,196,172)" fill-opacity="0.950" />
<polygon points="254.5,209.6 242.8,229.9 219.3,229.9 207.5,209.6 219.3,189.2 242.7,189.2" fill="rgb(196,179,147)" fill-opacity="0.926" />
<polygon points="254.5,247.7 242.8,268.0 219.3,268.0 207.5,247.7 219.3,227.3 242.7,227.3" fill="rgb(193,176,143)" fill-opacity="0.712" />
<polygon points="254.5,285.8 242.8,306.1 219.3,306.1 207.5,285.8 219.3,265.4 242.7,265.4" fill="rgb(181,159,119)" fill-opacity="0.629" />
<polygon points="254.5,323.9 242.8,344.2 219.3,344.2 207.5,323.9 219.3,303.5 242.7,303.5" fill="rgb(186,165,127)" fill-opacity="0.423" />
<polygon points="287.5,0.0 275.8,20.4 252.3,20.4 240.5,0.0 252.3,-20.4 275.8,-20.4" fill="rgb(0,0,0)" fill-opacity="0.490" />
<polygon points="287.5,38.1 275.8,58.5 252.3,58.5 240.5,38.1 252.3,17.8 275.8,17.8" fill="rgb(0,0,0)" fill-opacity="0.678" />
<polygon points="287.5,76.2 275.8,96.6 252.3,96.6 240.5,76.2 252.3,55.9 275.8,55.9" fill="rgb(212,201,179)" fill-opacity="0.695" />
<polygon points="287.5,114.3 275.8,134.7 252.3,134.7 240.5,114.3 252.3,94.0 275.8,94.0" fill="rgb(228,221,208)" fill-opacity="0.767" />
<polygon points="287.5,152.4 275.8,172.8 252.3,172.8 240.5,152.4 252.3,132.1 275.8,132.1" fill="rgb(205,192,166)" fill-opacity="0.950" />
<polygon points="287.5,190.5 275.8,210.9 252.3,210.9 240.5,190.5 252.3,170.2 275.8,170.2" fill="rgb(216,206,187)" fill-opacity="0.755" />
<polygon points="287.5,228.6 275.8,249.0 252.3,249.0 240.5,228.6 252.3,208.3 275.8,208.3" fill="rgb(226,219,205)" fill-opacity="0.706" />
<polygon points="287.5,266.7 275.8,287.1 252.3,287.1 240.5,266.7 252.3,246.4 275.8,246.4" fill="rgb(232,226,215)" fill-opacity="0.569" />
<polygon points="287.5,304.8 275.8,325.2 252.3,325.2 240.5,304.8 252.3,284.5 275.8,284.5" fill="rgb(235,230,221)" fill-opacity="0.449" />
<polygon points="320.5,57.2 308.8,77.5 285.3,77.5 273.5,57.2 285.3,36.8 308.8,36.8" fill="rgb(207,198,178)" fill-opacity="0.431" />
<polygon points="320.5,95.3 308.8,115.6 285.3,115.6 273.5,95.3 285.3,74.9 308.8,74.9" fill="rgb(226,220,206)" fill-opacity="0.571" />
<polygon points="320.5,133.4 308.8,153.7 285.3,153.7 273.5,133.4 285.3,113.0 308.8,113.0" fill="rgb(206,193,167)" fill-opacity="0.723" />
<polygon points="320.5,171.5 308.8,191.8 285.3,191.8 273.5,171.5 285.3,151.1 308.8,151.1" fill="rgb(209,197,173)" fill-opacity="0.732" />
<polygon points="320.5,209.6 308.8,229.9 285.3,229.9 273.5,209.6 285.3,189.2 308.8,189.2" fill="rgb(198,181,151)" fill-opacity="0.813" />
<polygon points="320.5,247.7 308.8,268.0 285.3,268.0 273.5,247.7 285.3,227.3 308.8,227.3" fill="rgb(188,169,133)" fill-opacity="0.673" />
<polygon points="320.5,285.8 308.8,306.1 285.3,306.1 273.5,285.8 285.3,265.4 308.8,265.4" fill="rgb(177,154,110)" fill-opacity="0.487" />
<polygon points="353.5,0.0 341.8,20.4 318.3,20.4 306.5,0.0 318.3,-20.4 341.8,-20.4" fill="rgb(0,0,0)" fill-opacity="0.472" />
<polygon points="353.5,38.1 341.8,58.5 318.3,58.5 306.5,38.1 318.3,17.8 341.8,17.8" fill="rgb(136,131,122)" fill-opacity="0.474" />
<polygon points="353.5,76.2 341.8,96.6 318.3,96.6 306.5,76.2 318.3,55.9 341.8,55.9" fill="rgb(220,211,193)" fill-opacity="0.674" />
<polygon points="353.5,114.3 341.8,134.7 318.3,134.7 306.5,114.3 318.3,94.0 341.8,94.0" fill="rgb(230,224,212)" fill-opacity="0.718" />
<polygon points="353.5,152.4 341.8,172.8 318.3,172.8 306.5,152.4 318.3,132.1 341.8,132.1" fill="rgb(205,192,165)" fill-opacity="0.799" />
<polygon points="353.5,190.5 341.8,210.9 318.3,210.9 306.5,190.5 318.3,170.2 341.8,170.2" fill="rgb(208,196,172)" fill-opacity="0.764" />
<polygon points="353.5,228.6 341.8,249.0 318.3,249.0 306.5,228.6 318.3,208.3 341.8,208.3" fill="rgb(199,182,152)" fill-opacity="0.741" />
<polygon points="353.5,266.7 341.8,287.1 318.3,287.1 306.5,266.7 318.3,246.4 341.8,246.4" fill="rgb(79,65,42)" fill-opacity="0.444" />
<polygon points="353.5,304.8 341.8,325.2 318.3,325.2 306.5,304.8 318.3,284.5 341.8,284.5" fill="rgb(79,65,42)" fill-opacity="0.459" />
<polygon points="386.5,57.2 374.8,77.5 351.3,77.5 339.5,57.2 351.3,36.8 374.8,36.8" fill="rgb(210,198,175)" fill-opacity="0.415" />
<polygon points="386.5,95.3 374.8,115.6 351.3,115.6 339.5,95.3 351.3,74.9 374.8,74.9" fill="rgb(232,227,217)" fill-opacity="0.626" />
<polygon points="386.5,133.4 374.8,153.7 351.3,153.7 339.5,133.4 351.3,113.0 374.8,113.0" fill="rgb(205,193,166)" fill-opacity="0.654" />
<polygon points="386.5,171.5 374.8,191.8 351.3,191.8 339.5,171.5 351.3,151.1 374.8,151.1" fill="rgb(208,196,171)" fill-opacity="0.541" />
<polygon points="386.5,209.6 374.8,229.9 351.3,229.9 339.5,209.6 351.3,189.2 374.8,189.2" fill="rgb(218,208,190)" fill-opacity="0.673" />
<polygon points="386.5,247.7 374.8,268.0 351.3,268.0 339.5,247.7 351.3,227.3 374.8,227.3" fill="rgb(230,224,212)" fill-opacity="0.528" />
<polygon points="386.5,285.8 374.8,306.1 351.3,306.1 339.5,285.8 351.3,265.4 374.8,265.4" fill="rgb(232,226,216)" fill-opacity="0.474" />
<polygon points="386.5,323.9 374.8,344.2 351.3,344.2 339.5,323.9 351.3,303.5 374.8,303.5" fill="rgb(232,226,216)" fill-opacity="0.458" />
<polygon points="419.5,76.2 407.8,96.6 384.3,96.6 372.5,76.2 384.3,55.9 407.8,55.9" fill="rgb(210,199,176)" fill-opacity="0.576" />
<polygon points="419.5,114.3 407.8,134.7 384.3,134.7 372.5,114.3 384.3,94.0 407.8,94.0" fill="rgb(231,225,215)" fill-opacity="0.488" />
<polygon points="419.5,152.4 407.8,172.8 384.3,172.8 372.5,152.4 384.3,132.1 407.8,132.1" fill="rgb(205,192,165)" fill-opacity="0.552" />
<polygon points="419.5,190.5 407.8,210.9 384.3,210.9 372.5,190.5 384.3,170.2 407.8,170.2" fill="rgb(212,201,179)" fill-opacity="0.655" />
<polygon points="419.5,228.6 407.8,249.0 384.3,249.0 372.5,228.6 384.3,208.3 407.8,208.3" fill="rgb(199,184,153)" fill-opacity="0.717" />
<polygon points="419.5,266.7 407.8,287.1 384.3,287.1 372.5,266.7 384.3,246.4 407.8,246.4" fill="rgb(189,169,132)" fill-opacity="0.637" />
<polygon points="452.5,95.3 440.8,115.6 417.3,115.6 405.5,95.3 417.3,74.9 440.8,74.9" fill="rgb(209,198,174)" fill-opacity="0.426" />
<polygon points="452.5,133.4 440.8,153.7 417.3,153.7 405.5,133.4 417.3,113.0 440.8,113.0" fill="rgb(204,191,164)" fill-opacity="0.407" />
<polygon points="452.5,171.5 440.8,191.8 417.3,191.8 405.5,171.5 417.3,151.1 440.8,151.1" fill="rgb(208,195,170)" fill-opacity="0.477" />
<polygon points="452.5,209.6 440.8,229.9 417.3,229.9 405.5,209.6 417.3,189.2 440.8,189.2" fill="rgb(195,178,145)" fill-opacity="0.697" />
<polygon points="452.5,247.7 440.8,268.0 417.3,268.0 405.5,247.7 417.3,227.3 440.8,227.3" fill="rgb(185,165,126)" fill-opacity="0.657" />
<polygon points="452.5,285.8 440.8,306.1 417.3,306.1 405.5,285.8 417.3,265.4 440.8,265.4" fill="rgb(173,149,104)" fill-opacity="0.538" />
<polygon points="485.5,114.3 473.8,134.7 450.3,134.7 438.5,114.3 450.3,94.0 473.8,94.0" fill="rgb(202,187,159)" fill-opacity="0.463" />
<polygon points="485.5,152.4 473.8,172.8 450.3,172.8 438.5,152.4 450.3,132.1 473.8,132.1" fill="rgb(204,191,163)" fill-opacity="0.434" />
<polygon points="485.5,190.5 473.8,210.9 450.3,210.9 438.5,190.5 450.3,170.2 473.8,170.2" fill="rgb(217,207,188)" fill-opacity="0.611" />
<polygon points="485.5,228.6 473.8,249.0 450.3,249.0 438.5,228.6 450.3,208.3 473.8,208.3" fill="rgb(190,177,154)" fill-opacity="0.815" />
<polygon points="485.5,266.7 473.8,287.1 450.3,287.1 438.5,266.7 450.3,246.4 473.8,246.4" fill="rgb(194,183,164)" fill-opacity="0.628" />
<polygon points="518.5,171.5 506.8,191.8 483.3,191.8 471.5,171.5 483.3,151.1 506.8,151.1" fill="rgb(206,193,167)" fill-opacity="0.404" />
<polygon points="518.5,209.6 506.8,229.9 483.3,229.9 471.5,209.6 483.3,189.2 506.8,189.2" fill="rgb(201,187,158)" fill-opacity="0.493" />
<polygon points="518.5,247.7 506.8,268.0 483.3,268.0 471.5,247.7 483.3,227.3 506.8,227.3" fill="rgb(217,207,188)" fill-opacity="0.622" />
<polygon points="518.5,285.8 506.8,306.1 483.3,306.1 471.5,285.8 483.3,265.4 506.8,265.4" fill="rgb(219,210,192)" fill-opacity="0.425" />
<polygon points="551.5,152.4 539.8,172.8 516.3,172.8 504.5,152.4 516.3,132.1 539.8,132.1" fill="rgb(68,60,43)" fill-opacity="0.428" />
<polygon points="551.5,228.6 539.8,249.0 516.3,249.0 504.5,228.6 516.3,208.3 539.8,208.3" fill="rgb(0,0,0)" fill-opacity="0.440" />
<polygon points="551.5,342.9 539.8,363.3 516.3,363.3 504.5,342.9 516.3,322.6 539.8,322.6" fill="rgb(119,116,104)" fill-opacity="0.408" />
</svg>