<?xml version="1.0" encoding="UTF-8"?>
<svg xmlns="http://www.w3.org/2000/svg" viewBox="7 -23 645 369" width="645" height="369">
<polygon points="56.5,19.1 44.8,39.4 21.3,39.4 9.5,19.1 21.2,-1.3 44.7,-1.3" fill="rgb(63,48,34)" fill-opacity="0.416" />
<polygon points="89.5,76.2 77.8,96.6 54.3,96.6 42.5,76.2 54.2,55.9 77.7,55.9" fill="rgb(71,58,46)" fill-opacity="0.424" />
<polygon points="89.5,114.3 77.8,134.7 54.3,134.7 42.5,114.3 54.2,94.0 77.7,94.0" fill="rgb(120,121,115)" fill-opacity="0.416" />
<polygon points="89.5,152.4 77.8,172.8 54.3,172.8 42.5,152.4 54.2,132.1 77.7,132.1" fill="rgb(32,35,40)" fill-opacity="0.456" />
<polygon points="89.5,190.5 77.8,210.9 54.3,210.9 42.5,190.5 54.2,170.2 77.7,170.2" fill="rgb(37,40,47)" fill-opacity="0.493" />
<polygon points="89.5,228.6 77.8,249.0 54.3,249.0 42.5,228.6 54.2,208.3 77.7,208.3" fill="rgb(169,173,174)" fill-opacity="0.412" />
<polygon points="122.5,133.4 110.8,153.7 87.3,153.7 75.5,133.4 87.2,113.0 110.7,113.0" fill="rgb(74,70,66)" fill-opacity="0.531" />
<polygon points="122.5,171.5 110.8,191.8 87.3,191.8 75.5,171.5 87.2,151.1 110.7,151.1" fill="rgb(14,17,24)" fill-opacity="0.523" />
<polygon points="122.5,209.6 110.8,229.9 87.3,229.9 75.5,209.6 87.2,189.2 110.7,189.2" fill="rgb(115,113,107)" fill-opacity="0.585" />
<polygon points="122.5,247.7 110.8,268.0 87.3,268.0 75.5,247.7 87.2,227.3 110.7,227.3" fill="rgb(186,191,194)" fill-opacity="0.412" />
<polygon points="155.5,76.2 143.8,96.6 120.3,96.6 108.5,76.2 120.2,55.9 143.7,55.9" fill="rgb(92,76,61)" fill-opacity="0.582" />
<polygon points="155.5,114.3 143.8,134.7 120.3,134.7 108.5,114.3 120.2,94.0 143.7,94.0" fill="rgb(95,82,67)" fill-opacity="0.640" />
<polygon points="155.5,152.4 143.8,172.8 120.3,172.8 108.5,152.4 120.2,132.1 143.7,132.1" fill="rgb(35,35,35)" fill-opacity="0.673" />
<polygon points="155.5,190.5 143.8,210.9 120.3,210.9 108.5,190.5 120.2,170.2 143.7,170.2" fill="rgb(41,39,34)" fill-opacity="0.677" />
<polygon points="155.5,228.6 143.8,249.0 120.3,249.0 108.5,228.6 120.2,208.3 143.7,208.3" fill="rgb(163,161,153)" fill-opacity="0.615" />
<polygon points="188.5,57.2 176.8,77.5 153.3,77.5 141.5,57.2 153.3,36.8 176.7,36.8" fill="rgb(82,69,57)" fill-opacity="0.419" />
<polygon points="188.5,95.3 176.8,115.6 153.3,115.6 141.5,95.3 153.3,74.9 176.7,74.9" fill="rgb(85,71,58)" fill-opacity="0.529" />
<polygon points="188.5,133.4 176.8,153.7 153.3,153.7 141.5,133.4 153.3,113.0 176.7,113.0" fill="rgb(73,63,54)" fill-opacity="0.719" />
<polygon points="188.5,171.5 176.8,191.8 153.3,191.8 141.5,171.5 153.3,151.1 176.7,151.1" fill="rgb(26,27,28)" fill-opacity="0.593" />
<polygon points="188.5,209.6 176.8,229.9 153.3,229.9 141.5,209.6 153.3,189.2 176.7,189.2" fill="rgb(115,100,70)" fill-opacity="0.747" />
<polygon points="188.5,247.7 176.8,268.0 153.3,268.0 141.5,247.7 153.3,227.3 176.7,227.3" fill="rgb(133,137,139)" fill-opacity="0.482" />
<polygon points="188.5,285.8 176.8,306.1 153.3,306.1 141.5,285.8 153.3,265.4 176.7,265.4" fill="rgb(135,138,143)" fill-opacity="0.422" />
<polygon points="221.5,0.0 209.8,20.4 186.3,20.4 174.5,0.0 186.3,-20.4 209.7,-20.4" fill="rgb(59,49,39)" fill-opacity="0.443" />
<polygon points="221.5,38.1 209.8,58.5 186.3,58.5 174.5,38.1 186.3,17.8 209.7,17.8" fill="rgb(58,50,39)" fill-opacity="0.601" />
<polygon points="221.5,76.2 209.8,96.6 186.3,96.6 174.5,76.2 186.3,55.9 209.7,55.9" fill="rgb(59,49,39)" fill-opacity="0.598" />
<polygon points="221.5,114.3 209.8,134.7 186.3,134.7 174.5,114.3 186.3,94.0 209.7,94.0" fill="rgb(65,55,45)" fill-opacity="0.701" />
<polygon points="221.5,152.4 209.8,172.8 186.3,172.8 174.5,152.4 186.3,132.1 209.7,132.1" fill="rgb(58,46,40)" fill-opacity="0.849" />
<polygon points="221.5,190.5 209.8,210.9 186.3,210.9 174.5,190.5 186.3,170.2 209.7,170.2" fill="rgb(32,32,32)" fill-opacity="0.818" />
<polygon points="221.5,228.6 209.8,249.0 186.3,249.0 174.5,228.6 186.3,208.3 209.7,208.3" fill="rgb(114,109,97)" fill-opacity="0.674" />
<polygon points="221.5,266.7 209.8,287.1 186.3,287.1 174.5,266.7 186.3,246.4 209.7,246.4" fill="rgb(132,136,141)" fill-opacity="0.504" />
<polygon points="254.5,19.1 242.8,39.4 219.3,39.4 207.5,19.1 219.3,-1.3 242.7,-1.3" fill="rgb(36,29,21)" fill-opacity="0.445" />
<polygon points="254.5,57.2 242.8,77.5 219.3,77.5 207.5,57.2 219.3,36.8 242.7,36.8" fill="rgb(34,29,23)" fill-opacity="0.548" />
<polygon points="254.5,95.3 242.8,115.6 219.3,115.6 207.5,95.3 219.3,74.9 242.7,74.9" fill="rgb(39,33,27)" fill-opacity="0.591" />
<polygon points="254.5,133.4 242.8,153.7 219.3,153.7 207.5,133.4 219.3,113.0 242.7,113.0" fill="rgb(174,131,132)" fill-opacity="0.778" />
<polygon points="254.5,171.5 242.8,191.8 219.3,191.8 207.5,171.5 219.3,151.1 242.7,151.1" fill="rgb(178,134,136)" fill-opacity="0.878" />
<polygon points="254.5,209.6 242.8,229.9 219.3,229.9 207.5,209.6 219.3,189.2 242.7,189.2" fill="rgb(58,48,43)" fill-opacity="0.868" />
<polygon points="254.5,247.7 242.8,268.0 219.3,268.0 207.5,247.7 219.3,227.3 242.7,227.3" fill="rgb(121,122,124)" fill-opacity="0.582" />
<polygon points="254.5,285.8 242.8,306.1 219.3,306.1 207.5,285.8 219.3,265.4 242.7,265.4" fill="rgb(137,141,144)" fill-opacity="0.672" />
<polygon points="254.5,323.9 242.8,344.2 219.3,344.2 207.5,323.9 219.3,303.5 242.7,303.5" fill="rgb(138,139,143)" fill-opacity="0.460" />
<polygon points="287.5,38.1 275.8,58.5 252.3,58.5 240.5,38.1 252.3,17.8 275.8,17.8" fill="rgb(49,29,18)" fill-opacity="0.552" />
<polygon points="287.5,76.2 275.8,96.6 252.3,96.6 240.5,76.2 252.3,55.9 275.8,55.9" fill="rgb(65,43,30)" fill-opacity="0.603" />
<polygon points="287.5,114.3 275.8,134.7 252.3,134.7 240.5,114.3 252.3,94.0 275.8,94.0" fill="rgb(118,81,84)" fill-opacity="0.807" />
<polygon points="287.5,152.4 275.8,172.8 252.3,172.8 240.5,152.4 252.3,132.1 275.8,132.1" fill="rgb(151,104,107)" fill-opacity="0.865" />
<polygon points="287.5,190.5 275.8,210.9 252.3,210.9 240.5,190.5 252.3,170.2 275.8,170.2" fill="rgb(161,118,119)" fill-opacity="0.893" />
<polygon points="287.5,228.6 275.8,249.0 252.3,249.0 240.5,228.6 252.3,208.3 275.8,208.3" fill="rgb(93,81,73)" fill-opacity="0.747" />
<polygon points="287.5,266.7 275.8,287.1 252.3,287.1 240.5,266.7 252.3,246.4 275.8,246.4" fill="rgb(141,142,144)" fill-opacity="0.581" />
<polygon points="287.5,304.8 275.8,325.2 252.3,325.2 240.5,304.8 252.3,284.5 275.8,284.5" fill="rgb(149,150,152)" fill-opacity="0.421" />
<polygon points="320.5,57.2 308.8,77.5 285.3,77.5 273.5,57.2 285.3,36.8 308.8,36.8" fill="rgb(65,38,21)" fill-opacity="0.561" />
<polygon points="320.5,95.3 308.8,115.6 285.3,115.6 273.5,95.3 285.3,74.9 308.8,74.9" fill="rgb(182,144,148)" fill-opacity="0.794" />
<polygon points="320.5,133.4 308.8,153.7 285.3,153.7 273.5,133.4 285.3,113.0 308.8,113.0" fill="rgb(193,156,161)" fill-opacity="0.943" />
<polygon points="320.5,171.5 308.8,191.8 285.3,191.8 273.5,171.5 285.3,151.1 308.8,151.1" fill="rgb(185,136,139)" fill-opacity="0.849" />
<polygon points="320.5,209.6 308.8,229.9 285.3,229.9 273.5,209.6 285.3,189.2 308.8,189.2" fill="rgb(170,118,120)" fill-opacity="0.812" />
<polygon points="320.5,247.7 308.8,268.0 285.3,268.0 273.5,247.7 285.3,227.3 308.8,227.3" fill="rgb(159,162,173)" fill-opacity="0.787" />
<polygon points="320.5,285.8 308.8,306.1 285.3,306.1 273.5,285.8 285.3,265.4 308.8,265.4" fill="rgb(172,179,189)" fill-opacity="0.565" />
<polygon points="353.5,38.1 341.8,58.5 318.3,58.5 306.5,38.1 318.3,17.8 341.8,17.8" fill="rgb(61,35,18)" fill-opacity="0.524" />
<polygon points="353.5,76.2 341.8,96.6 318.3,96.6 306.5,76.2 318.3,55.9 341.8,55.9" fill="rgb(117,77,82)" fill-opacity="0.569" />
<polygon points="353.5,114.3 341.8,134.7 318.3,134.7 306.5,114.3 318.3,94.0 341.8,94.0" fill="rgb(147,100,104)" fill-opacity="0.780" />
<polygon points="353.5,152.4 341.8,172.8 318.3,172.8 306.5,152.4 318.3,132.1 341.8,132.1" fill="rgb(186,144,148)" fill-opacity="0.870" />
<polygon points="353.5,190.5 341.8,210.9 318.3,210.9 306.5,190.5 318.3,170.2 341.8,170.2" fill="rgb(186,137,140)" fill-opacity="0.812" />
<polygon points="353.5,228.6 341.8,249.0 318.3,249.0 306.5,228.6 318.3,208.3 341.8,208.3" fill="rgb(164,166,177)" fill-opacity="0.706" />
<polygon points="353.5,266.7 341.8,287.1 318.3,287.1 306.5,266.7 318.3,246.4 341.8,246.4" fill="rgb(186,194,207)" fill-opacity="0.510" />
<polygon points="353.5,304.8 341.8,325.2 318.3,325.2 306.5,304.8 318.3,284.5 341.8,284.5" fill="rgb(190,197,210)" fill-opacity="0.535" />
<polygon points="386.5,95.3 374.8,115.6 351.3,115.6 339.5,95.3 351.3,74.9 374.8,74.9" fill="rgb(88,53,59)" fill-opacity="0.600" />
<polygon points="386.5,133.4 374.8,153.7 351.3,153.7 339.5,133.4 351.3,113.0 374.8,113.0" fill="rgb(200,179,158)" fill-opacity="0.808" />
<polygon points="386.5,171.5 374.8,191.8 351.3,191.8 339.5,171.5 351.3,151.1 374.8,151.1" fill="rgb(172,125,127)" fill-opacity="0.708" />
<polygon points="386.5,209.6 374.8,229.9 351.3,229.9 339.5,209.6 351.3,189.2 374.8,189.2" fill="rgb(178,133,135)" fill-opacity="0.854" />
<polygon points="386.5,247.7 374.8,268.0 351.3,268.0 339.5,247.7 351.3,227.3 374.8,227.3" fill="rgb(186,194,207)" fill-opacity="0.630" />
<polygon points="386.5,285.8 374.8,306.1 351.3,306.1 339.5,285.8 351.3,265.4 374.8,265.4" fill="rgb(188,196,209)" fill-opacity="0.414" />
<polygon points="419.5,38.1 407.8,58.5 384.3,58.5 372.5,38.1 384.3,17.8 407.8,17.8" fill="rgb(113,83,70)" fill-opacity="0.411" />
<polygon points="419.5,76.2 407.8,96.6 384.3,96.6 372.5,76.2 384.3,55.9 407.8,55.9" fill="rgb(192,148,157)" fill-opacity="0.609" />
<polygon points="419.5,114.3 407.8,134.7 384.3,134.7 372.5,114.3 384.3,94.0 407.8,94.0" fill="rgb(147,101,101)" fill-opacity="0.666" />
<polygon points="419.5,152.4 407.8,172.8 384.3,172.8 372.5,152.4 384.3,132.1 407.8,132.1" fill="rgb(169,130,134)" fill-opacity="0.777" />
<polygon points="419.5,190.5 407.8,210.9 384.3,210.9 372.5,190.5 384.3,170.2 407.8,170.2" fill="rgb(184,142,149)" fill-opacity="0.601" />
<polygon points="419.5,228.6 407.8,249.0 384.3,249.0 372.5,228.6 384.3,208.3 407.8,208.3" fill="rgb(18,9,7)" fill-opacity="0.524" />
<polygon points="419.5,266.7 407.8,287.1 384.3,287.1 372.5,266.7 384.3,246.4 407.8,246.4" fill="rgb(187,195,208)" fill-opacity="0.547" />
<polygon points="452.5,95.3 440.8,115.6 417.3,115.6 405.5,95.3 417.3,74.9 440.8,74.9" fill="rgb(90,50,51)" fill-opacity="0.592" />
<polygon points="452.5,133.4 440.8,153.7 417.3,153.7 405.5,133.4 417.3,113.0 440.8,113.0" fill="rgb(32,15,13)" fill-opacity="0.560" />
<polygon points="452.5,171.5 440.8,191.8 417.3,191.8 405.5,171.5 417.3,151.1 440.8,151.1" fill="rgb(192,157,157)" fill-opacity="0.499" />
<polygon points="452.5,209.6 440.8,229.9 417.3,229.9 405.5,209.6 417.3,189.2 440.8,189.2" fill="rgb(189,153,156)" fill-opacity="0.710" />
<polygon points="452.5,247.7 440.8,268.0 417.3,268.0 405.5,247.7 417.3,227.3 440.8,227.3" fill="rgb(113,73,73)" fill-opacity="0.678" />
<polygon points="452.5,285.8 440.8,306.1 417.3,306.1 405.5,285.8 417.3,265.4 440.8,265.4" fill="rgb(164,171,187)" fill-opacity="0.623" />
<polygon points="485.5,76.2 473.8,96.6 450.3,96.6 438.5,76.2 450.3,55.9 473.8,55.9" fill="rgb(187,139,145)" fill-opacity="0.432" />
<polygon points="485.5,152.4 473.8,172.8 450.3,172.8 438.5,152.4 450.3,132.1 473.8,132.1" fill="rgb(158,114,113)" fill-opacity="0.445" />
<polygon points="485.5,190.5 473.8,210.9 450.3,210.9 438.5,190.5 450.3,170.2 473.8,170.2" fill="rgb(180,137,139)" fill-opacity="0.639" />
<polygon points="485.5,228.6 473.8,249.0 450.3,249.0 438.5,228.6 450.3,208.3 473.8,208.3" fill="rgb(81,55,50)" fill-opacity="0.626" />
<polygon points="485.5,266.7 473.8,287.1 450.3,287.1 438.5,266.7 450.3,246.4 473.8,246.4" fill="rgb(62,60,62)" fill-opacity="0.570" />
<polygon points="485.5,304.8 473.8,325.2 450.3,325.2 438.5,304.8 450.3,284.5 473.8,284.5" fill="rgb(119,127,134)" fill-opacity="0.427" />
<polygon points="518.5,133.4 506.8,153.7 483.3,153.7 471.5,133.4 483.3,113.0 506.8,113.0" fill="rgb(114,90,71)" fill-opacity="0.474" />
<polygon points="518.5,171.5 506.8,191.8 483.3,191.8 471.5,171.5 483.3,151.1 506.8,151.1" fill="rgb(167,124,124)" fill-opacity="0.502" />
<polygon points="518.5,209.6 506.8,229.9 483.3,229.9 471.5,209.6 483.3,189.2 506.8,189.2" fill="rgb(150,109,110)" fill-opacity="0.653" />
<polygon points="518.5,247.7 506.8,268.0 483.3,268.0 471.5,247.7 483.3,227.3 506.8,227.3" fill="rgb(230,214,181)" fill-opacity="0.562" />
<polygon points="518.5,285.8 506.8,306.1 483.3,306.1 471.5,285.8 483.3,265.4 506.8,265.4" fill="rgb(68,56,46)" fill-opacity="0.443" />
<polygon points="551.5,190.5 539.8,210.9 516.3,210.9 504.5,190.5 516.3,170.2 539.8,170.2" fill="rgb(157,122,121)" fill-opacity="0.516" />
<polygon points="551.5,266.7 539.8,287.1 516.3,287.1 504.5,266.7 516.3,246.4 539.8,246.4" fill="rgb(229,213,180)" fill-opacity="0.508" />
<polygon points="551.5,304.8 539.8,325.2 516.3,325.2 504.5,304.8 516.3,284.5 539.8,284.5" fill="rgb(224,206,168)" fill-opacity="0.416" />
<polygon points="584.5,171.5 572.8,191.8 549.3,191.8 537.5,171.5 549.3,151.1 572.8,151.1" fill="rgb(210,195,153)" fill-opacity="0.411" />
<polygon points="650.5,323.9 638.8,344.2 615.3,344.2 603.5,323.9 615.3,303.5 638.8,303.5" fill="rgb(138,145,152)" fill-opacity="0.412" />
</svg>